<?xml version="1.0" encoding="utf-8"?>
<svg viewBox="481.419 217.834 71.161 94.333" width="71.161" height="94.333" xmlns="http://www.w3.org/2000/svg">
  <g transform="matrix(0.1, 0, 0, -0.1, 409.03067, 382.666412)" fill="#7216F4" stroke="none">
    <path d="M875 1640 c-3 -6 1 -12 9 -15 9 -3 23 -7 31 -10 12 -4 15 -26 15 -123 l0 -120 -30 -12 c-37 -15 -112 -95 -138 -146 -90 -176 -15 -392 166 -481 50 -25 68 -28 152 -28 84 0 102 3 152 28 180 88 255 306 166 480 -26 53 -101 132 -139 147 l-30 13 3 120 c3 117 4 121 26 127 13 3 23 10 23 15 -1 14 -397 19 -406 5z m325 -150 l0 -130 38 -19 c82 -42 155 -149 168 -245 l7 -46 -59 0 c-32 0 -115 -14 -184 -31 -144 -36 -194 -35 -311 6 -40 14 -81 25 -92 25 -18 0 -19 5 -13 46 13 96 86 203 168 245 l38 19 0 130 0 130 120 0 120 0 0 -130z m4 -541 c25 -20 33 -53 18 -75 -15 -23 -50 -34 -75 -25 -45 18 -48 88 -5 109 31 15 32 15 62 -9z"/>
    <path d="M1023 1334 c-3 -8 2 -23 11 -32 15 -15 17 -15 32 0 21 21 11 48 -16 48 -11 0 -23 -7 -27 -16z"/>
    <path d="M1113 1214 c-3 -8 1 -22 9 -30 12 -12 17 -12 33 -1 23 17 14 47 -15 47 -11 0 -23 -7 -27 -16z"/>
    <path d="M1024 1125 c-4 -9 -2 -21 4 -27 16 -16 47 -5 47 17 0 26 -42 34 -51 10z"/>
    <path d="M1144 915 c-4 -9 -2 -21 4 -27 16 -16 47 -5 47 17 0 26 -42 34 -51 10z"/>
  </g>
</svg>